<svg width="20" height="20" viewBox="0 0 20 20" fill="none" xmlns="http://www.w3.org/2000/svg">
<mask id="mask0_4352_13974" style="mask-type:alpha" maskUnits="userSpaceOnUse" x="0" y="0" width="20" height="20">
<rect width="20" height="20" fill="#D9D9D9"/>
</mask>
<g mask="url(#mask0_4352_13974)">
<path d="M3.35661 17.6663C3.07634 17.6663 2.8355 17.567 2.63411 17.3684C2.43273 17.17 2.33203 16.9302 2.33203 16.6493V14.5899C2.33203 14.3214 2.38064 14.0622 2.47786 13.8122C2.57509 13.5622 2.72786 13.333 2.9362 13.1247L13.332 2.70801C13.4709 2.55523 13.6226 2.45454 13.787 2.40592C13.9513 2.35731 14.118 2.33301 14.287 2.33301C14.4559 2.33301 14.6133 2.35384 14.7591 2.39551C14.9049 2.43717 15.0543 2.52745 15.207 2.66634L17.3112 4.74967C17.4501 4.90245 17.5438 5.05523 17.5924 5.20801C17.6411 5.36079 17.6654 5.52426 17.6654 5.69842C17.6654 5.87134 17.6374 6.03829 17.5816 6.19926C17.5258 6.36023 17.4287 6.50898 17.2904 6.64551L6.8737 17.0622C6.66536 17.2705 6.43654 17.4233 6.18724 17.5205C5.93793 17.6177 5.67932 17.6663 5.41141 17.6663H3.35661ZM14.2904 6.79134L15.3737 5.70801L14.2904 4.64551L13.207 5.70801L14.2904 6.79134Z" fill="#9047FF"/>
</g>
</svg>
