<svg width="20" height="20" viewBox="0 0 20 20" fill="none" xmlns="http://www.w3.org/2000/svg">
<mask id="mask0_4352_13868" style="mask-type:alpha" maskUnits="userSpaceOnUse" x="0" y="0" width="20" height="20">
<rect width="20" height="20" fill="#D9D9D9"/>
</mask>
<g mask="url(#mask0_4352_13868)">
<path d="M7.90796 11.5518C7.33157 10.9754 7.04337 10.2775 7.04337 9.45801V4.41634C7.04337 3.5969 7.33157 2.89898 7.90796 2.32259C8.48434 1.7462 9.18226 1.45801 10.0017 1.45801C10.8211 1.45801 11.5191 1.7462 12.0955 2.32259C12.6718 2.89898 12.96 3.5969 12.96 4.41634V9.45801C12.96 10.2775 12.6718 10.9754 12.0955 11.5518C11.5191 12.1281 10.8211 12.4163 10.0017 12.4163C9.18226 12.4163 8.48434 12.1281 7.90796 11.5518ZM8.96004 16.6872V15.708C7.58504 15.5413 6.41837 14.9719 5.46004 13.9997C4.50171 13.0275 3.91837 11.8608 3.71004 10.4997C3.65448 10.2311 3.72316 9.9903 3.91608 9.77738C4.109 9.56447 4.35205 9.45801 4.64525 9.45801C4.92455 9.45801 5.17184 9.5587 5.38712 9.76009C5.6024 9.96148 5.73782 10.2011 5.79337 10.4788C6.02948 11.465 6.54011 12.2566 7.32525 12.8538C8.11052 13.4511 8.99955 13.7497 9.99233 13.7497C10.9847 13.7497 11.8767 13.4511 12.6684 12.8538C13.46 12.2566 13.9739 11.465 14.21 10.4788C14.2795 10.2011 14.4169 9.96148 14.6223 9.76009C14.8277 9.5587 15.0708 9.45801 15.3515 9.45801C15.6461 9.45801 15.8906 9.56099 16.085 9.76697C16.2795 9.97294 16.3489 10.2172 16.2934 10.4997C16.085 11.8747 15.4948 13.0448 14.5225 14.0101C13.5503 14.9754 12.3767 15.5413 11.0017 15.708V16.6872C11.0017 16.9691 10.9025 17.2097 10.704 17.409C10.5055 17.6084 10.2659 17.708 9.98525 17.708C9.70455 17.708 9.46351 17.6084 9.26212 17.409C9.06073 17.2097 8.96004 16.9691 8.96004 16.6872Z" fill="#9047FF"/>
</g>
</svg>
