<svg width="24" height="24" viewBox="0 0 24 24" fill="none" xmlns="http://www.w3.org/2000/svg">
<g clip-path="url(#clip0_4273_9659)">
<path fill-rule="evenodd" clip-rule="evenodd" d="M2.69926 12.4133L2.63307 11.6751C2.27182 7.3044 5.67717 2.70423 11.9996 2.70423C18.3221 2.70423 21.7277 7.30447 21.3665 11.6751L21.3009 12.4078C20.7567 12.0945 20.1372 11.892 19.4705 11.8337C17.0223 11.6195 14.864 13.4306 14.6498 15.8788L14.374 19.0309C14.1598 21.4793 15.9708 23.6376 18.4191 23.8518C20.8673 24.066 23.0258 22.255 23.2399 19.8066L23.5157 16.6545C23.5258 16.5394 23.5313 16.4249 23.5327 16.3113L23.928 11.9005L23.9287 11.8922C24.4219 5.96347 19.7695 0.132812 11.9996 0.132812C4.22957 0.132812 -0.422292 5.96354 0.0708301 11.8922L0.071541 11.9005L0.467259 16.3146L0.477032 16.3137C0.478347 16.4266 0.483932 16.5402 0.49393 16.6545L0.769707 19.8066C0.983902 22.255 3.14225 24.066 5.59051 23.8518C8.03876 23.6376 9.84984 21.4793 9.63564 19.0309L9.35986 15.8788C9.14566 13.4306 6.98732 11.6195 4.53907 11.8337C3.86847 11.8924 3.24571 12.0969 2.69926 12.4133Z" fill="#9047FF"/>
</g>
<defs>
<clipPath id="clip0_4273_9659">
<rect width="24" height="24" fill="white"/>
</clipPath>
</defs>
</svg>
