<svg width="24" height="24" viewBox="0 0 24 24" fill="none" xmlns="http://www.w3.org/2000/svg">
<path d="M10.087 2.02874C11.1249 0.928089 12.8751 0.92809 13.913 2.02874C14.5279 2.68083 15.4326 2.97479 16.3133 2.80866C17.7999 2.52824 19.2159 3.55703 19.4086 5.0575C19.5228 5.94648 20.0819 6.71607 20.8921 7.09936C22.2596 7.74629 22.8004 9.41089 22.0744 10.7381C21.6442 11.5244 21.6442 12.4756 22.0744 13.2619C22.8004 14.5891 22.2596 16.2537 20.8921 16.9006C20.0819 17.2839 19.5228 18.0535 19.4086 18.9425C19.2159 20.443 17.7999 21.4718 16.3133 21.1913C15.4326 21.0252 14.5279 21.3192 13.913 21.9713C12.8751 23.0719 11.1249 23.0719 10.087 21.9713C9.47213 21.3192 8.56742 21.0252 7.68667 21.1913C6.20009 21.4718 4.7841 20.443 4.5914 18.9425C4.47724 18.0535 3.9181 17.2839 3.10791 16.9006C1.74042 16.2537 1.19956 14.5891 1.92562 13.2619C2.35579 12.4756 2.35579 11.5244 1.92562 10.7381C1.19956 9.41089 1.74042 7.74629 3.10791 7.09936C3.9181 6.71607 4.47724 5.94648 4.5914 5.0575C4.7841 3.55703 6.20009 2.52824 7.68667 2.80866C8.56742 2.97479 9.47213 2.68083 10.087 2.02874Z" fill="#19C119"/>
<path d="M10.8334 13.8495L16.1956 8.4873L17.0206 9.31226L10.8334 15.4994L7.12109 11.7872L7.94606 10.9622L10.8334 13.8495Z" fill="white"/>
</svg>
